<?xml version="1.0" encoding="utf-8"?>
<svg xmlns="http://www.w3.org/2000/svg">
    <symbol id="started" width="216" height="175" viewBox="0 0 216 175" fill="none" xmlns="http://www.w3.org/2000/svg">
        <path opacity="0.1" d="M170.949 65.2163C170.313 64.3442 169.637 63.5006 168.921 62.6855C165.301 58.5476 160.793 55.2384 155.717 52.9924C154.33 52.3782 152.906 51.8475 151.453 51.4034C150.444 51.0943 149.418 50.8279 148.374 50.6042L146.405 50.2272C141.446 49.4167 136.372 49.5764 131.477 50.6968C126.581 51.8172 121.963 53.8761 117.889 56.754C116.909 56.6377 115.919 56.56 114.916 56.5209C114.878 56.4184 114.838 56.3158 114.797 56.2119C114.463 55.347 114.104 54.4945 113.721 53.6545C111.584 48.9498 108.713 44.5967 105.212 40.75C105.051 40.5742 104.89 40.3983 104.727 40.2252C102.394 37.7329 99.8096 35.4762 97.0139 33.4892C88.3234 27.3235 77.8585 24.0019 67.1175 24H67.0452C66.2489 24 65.4575 24.0182 64.6711 24.0546L61.6343 24.2784C61.3848 24.3037 61.1352 24.3303 60.887 24.361L57.8175 24.8139C57.0047 24.9577 56.1988 25.1215 55.3997 25.3054C44.5393 27.8021 34.8121 33.6982 27.7001 42.0953C26.8383 43.1103 26.0201 44.1595 25.2456 45.2428C24.876 45.757 24.516 46.2751 24.1683 46.8026C24.0005 47.0557 23.8355 47.3088 23.6719 47.5645C23.1319 48.409 22.6201 49.2699 22.1365 50.1473C21.621 51.077 21.1355 52.0236 20.6801 52.9871C20.6759 52.9949 20.6722 53.0029 20.6692 53.0111C19.2066 56.1072 18.0765 59.3431 17.2969 62.6668C17.0905 63.5406 16.9087 64.4224 16.7514 65.3122C16.6896 65.6532 16.6323 65.995 16.5796 66.3378L16.5633 66.4524C16.2062 68.8937 16.0001 71.3956 16.0001 73.8623C15.9865 81.9096 17.9774 89.8392 21.801 96.9673L21.8542 97.0659C25.7271 104.238 31.3258 110.385 38.1688 114.976C43.9466 118.863 50.4585 121.448 57.3143 122.816C58.8725 123.111 65.248 124 67.192 124C94.9026 124 110.857 124 134.516 124C141.621 124 149.448 123.305 156.178 120.227C162.909 117.149 168.564 112.205 172.44 106.011C176.316 99.8169 178.241 92.6461 177.976 85.3913C177.711 78.1365 175.267 71.118 170.949 65.2096V65.2163Z" fill="#662EFF"/>
        <path d="M43 12C43 5.37258 48.3726 0 55 0H140C146.627 0 152 5.37258 152 12V145C152 151.627 146.627 157 140 157H55C48.3726 157 43 151.627 43 145V12Z" fill="#662EFF"/>
        <path d="M179 134.5C179 137.538 176.538 140 173.5 140C170.462 140 168 137.538 168 134.5C168 131.462 170.462 129 173.5 129C176.538 129 179 131.462 179 134.5Z" fill="#662EFF"/>
        <path d="M34 55.5C34 63.5081 27.5081 70 19.5 70C11.4919 70 5 63.5081 5 55.5C5 47.4919 11.4919 41 19.5 41C27.5081 41 34 47.4919 34 55.5ZM9.35 55.5C9.35 61.1057 13.8943 65.65 19.5 65.65C25.1057 65.65 29.65 61.1057 29.65 55.5C29.65 49.8943 25.1057 45.35 19.5 45.35C13.8943 45.35 9.35 49.8943 9.35 55.5Z" fill="#662EFF"/>
        <g opacity="0.2">
            <path d="M79 57C79 63.6274 73.6274 69 67 69C60.3726 69 55 63.6274 55 57C55 50.3726 60.3726 45 67 45C73.6274 45 79 50.3726 79 57Z" fill="white"/>
            <path d="M109 27C109 33.6274 103.627 39 97 39C90.3726 39 85 33.6274 85 27C85 20.3726 90.3726 15 97 15C103.627 15 109 20.3726 109 27Z" fill="white"/>
            <path d="M109 87C109 93.6274 103.627 99 97 99C90.3726 99 85 93.6274 85 87C85 80.3726 90.3726 75 97 75C103.627 75 109 80.3726 109 87Z" fill="white"/>
            <path d="M109 117C109 123.627 103.627 129 97 129C90.3726 129 85 123.627 85 117C85 110.373 90.3726 105 97 105C103.627 105 109 110.373 109 117Z" fill="white"/>
            <path d="M140 27C140 33.6274 134.627 39 128 39C121.373 39 116 33.6274 116 27C116 20.3726 121.373 15 128 15C134.627 15 140 20.3726 140 27Z" fill="white"/>
            <path d="M140 57C140 63.6274 134.627 69 128 69C121.373 69 116 63.6274 116 57C116 50.3726 121.373 45 128 45C134.627 45 140 50.3726 140 57Z" fill="white"/>
        </g>
        <g opacity="0.54">
            <path d="M109 57C109 63.6274 103.627 69 97 69C90.3726 69 85 63.6274 85 57C85 50.3726 90.3726 45 97 45C103.627 45 109 50.3726 109 57Z" fill="white"/>
            <path d="M140 87C140 93.6274 134.627 99 128 99C121.373 99 116 93.6274 116 87C116 80.3726 121.373 75 128 75C134.627 75 140 80.3726 140 87Z" fill="white"/>
            <path d="M79 27C79 33.6274 73.6274 39 67 39C60.3726 39 55 33.6274 55 27C55 20.3726 60.3726 15 67 15C73.6274 15 79 20.3726 79 27Z" fill="white"/>
            <path d="M79 87C79 93.6274 73.6274 99 67 99C60.3726 99 55 93.6274 55 87C55 80.3726 60.3726 75 67 75C73.6274 75 79 80.3726 79 87Z" fill="white"/>
        </g>
        <g filter="url(#filter0_dd_54_11315)">
            <path d="M16 94.3333C16 90.2832 19.2832 87 23.3333 87H63.6667C67.7168 87 71 90.2832 71 94.3333V134.667C71 138.717 67.7168 142 63.6667 142H23.3333C19.2832 142 16 138.717 16 134.667V94.3333Z" fill="white"/>
        </g>
        <path d="M57.25 129.625C57.25 132.156 55.198 134.208 52.6667 134.208C50.1354 134.208 48.0834 132.156 48.0834 129.625C48.0834 127.094 50.1354 125.042 52.6667 125.042C55.198 125.042 57.25 127.094 57.25 129.625Z" fill="#FF4D4F"/>
        <path d="M38.9167 129.625C38.9167 132.156 36.8646 134.208 34.3333 134.208C31.802 134.208 29.75 132.156 29.75 129.625C29.75 127.094 31.802 125.042 34.3333 125.042C36.8646 125.042 38.9167 127.094 38.9167 129.625Z" fill="#36CFC9"/>
        <path fill-rule="evenodd" clip-rule="evenodd" d="M43.5 116.792C49.5751 116.792 54.5 111.867 54.5 105.792C54.5 99.7166 49.5751 94.7917 43.5 94.7917C37.4249 94.7917 32.5 99.7166 32.5 105.792C32.5 111.867 37.4249 116.792 43.5 116.792Z" fill="#EAEDF3"/>
        <path d="M39.8333 103.042C39.8333 105.064 41.4773 106.708 43.4996 106.708C45.5218 106.708 47.1666 105.063 47.1666 103.041C47.1666 101.02 45.5218 99.375 43.4996 99.375C41.4773 99.375 39.8333 101.021 39.8333 103.042Z" fill="#BCC5D1"/>
        <path d="M36.1666 111.292C36.1666 109.773 37.3978 108.542 38.9166 108.542H48.0833C49.6021 108.542 50.8333 109.773 50.8333 111.292C50.8333 111.292 48.5416 114.958 43.5 114.958C38.4583 114.958 36.1666 111.292 36.1666 111.292Z" fill="#BCC5D1"/>
        <circle cx="97.5" cy="156.5" r="18.5" fill="#5AD677"/>
        <path d="M90.2816 149.381C90.4476 149.215 90.6681 149.117 90.8946 149.109L93.8844 149.001C94.111 148.992 94.325 149.075 94.4794 149.229C94.6338 149.383 94.716 149.597 94.7078 149.824C94.6695 150.883 94.8029 151.911 95.0844 152.856C95.1675 153.151 95.0871 153.487 94.8396 153.726L92.892 155.682C94.0432 158.055 95.9448 159.965 98.3177 161.108L100.265 159.161C100.513 158.913 100.849 158.832 101.144 158.916C102.089 159.197 103.117 159.331 104.176 159.292C104.403 159.284 104.617 159.366 104.771 159.521C104.925 159.675 105.008 159.889 104.999 160.116L104.891 163.105C104.883 163.332 104.785 163.552 104.619 163.718C104.453 163.884 104.233 163.982 104.006 163.991C100.155 164.13 96.5163 162.733 93.8914 160.108C91.2665 157.483 89.8702 153.845 90.0095 149.994C90.0177 149.767 90.1156 149.547 90.2816 149.381Z" fill="white"/>
        <path d="M67.9786 30.5H66.6985V24.3163L64.8101 24.9617V23.8773L67.8146 22.7717H67.9786V30.5Z" fill="white"/>
        <path d="M99.4707 30H94.6904V29.1846L97.0586 26.6016C97.4004 26.2207 97.6429 25.9033 97.7861 25.6494C97.9326 25.3923 98.0059 25.1351 98.0059 24.8779C98.0059 24.5394 97.9098 24.266 97.7178 24.0576C97.529 23.8493 97.2734 23.7451 96.9512 23.7451C96.5671 23.7451 96.2692 23.8623 96.0576 24.0967C95.846 24.3311 95.7402 24.6517 95.7402 25.0586H94.5537C94.5537 24.6257 94.6514 24.2367 94.8467 23.8916C95.0452 23.5433 95.3268 23.2731 95.6914 23.0811C96.0592 22.889 96.4824 22.793 96.9609 22.793C97.651 22.793 98.1947 22.9671 98.5918 23.3154C98.9922 23.6605 99.1924 24.139 99.1924 24.751C99.1924 25.1058 99.0915 25.4785 98.8896 25.8691C98.6911 26.2565 98.3639 26.6976 97.9082 27.1924L96.1699 29.0527H99.4707V30Z" fill="white"/>
        <path d="M127.062 25.9033H127.785C128.15 25.9001 128.438 25.8057 128.649 25.6201C128.864 25.4346 128.972 25.166 128.972 24.8145C128.972 24.4759 128.882 24.2139 128.703 24.0283C128.527 23.8395 128.257 23.7451 127.893 23.7451C127.574 23.7451 127.312 23.8379 127.106 24.0234C126.901 24.2057 126.799 24.445 126.799 24.7412H125.612C125.612 24.3766 125.708 24.0446 125.9 23.7451C126.096 23.4456 126.366 23.2129 126.711 23.0469C127.059 22.8776 127.448 22.793 127.878 22.793C128.588 22.793 129.144 22.972 129.548 23.3301C129.955 23.6849 130.158 24.1797 130.158 24.8145C130.158 25.1335 130.056 25.4346 129.851 25.7178C129.649 25.9977 129.387 26.2093 129.064 26.3525C129.455 26.486 129.751 26.696 129.953 26.9824C130.158 27.2689 130.261 27.6107 130.261 28.0078C130.261 28.6458 130.041 29.1536 129.602 29.5313C129.165 29.9089 128.591 30.0977 127.878 30.0977C127.194 30.0977 126.634 29.9154 126.198 29.5508C125.762 29.1862 125.544 28.7012 125.544 28.0957H126.73C126.73 28.4082 126.835 28.6621 127.043 28.8574C127.255 29.0527 127.538 29.1504 127.893 29.1504C128.26 29.1504 128.55 29.0527 128.762 28.8574C128.973 28.6621 129.079 28.3789 129.079 28.0078C129.079 27.6335 128.968 27.3454 128.747 27.1436C128.526 26.9417 128.197 26.8408 127.761 26.8408H127.062V25.9033Z" fill="white"/>
        <path d="M68.7041 57.4658H69.5879V58.418H68.7041V60H67.5176V58.418H64.4463L64.4121 57.6953L67.4785 52.8906H68.7041V57.4658ZM65.6572 57.4658H67.5176V54.4971L67.4297 54.6533L65.6572 57.4658Z" fill="white"/>
        <path d="M69.8255 83.4748L66.5101 91H65.0575L68.3672 83.8166H64.0776V82.7057H69.8255V83.4748Z" fill="white"/>
        <path d="M95.0078 56.4746L95.3936 52.8906H99.2119V53.916H96.3799L96.1846 55.6152C96.5133 55.4264 96.8844 55.332 97.2979 55.332C97.9749 55.332 98.5007 55.5485 98.875 55.9814C99.2526 56.4144 99.4414 56.9971 99.4414 57.7295C99.4414 58.4521 99.2331 59.0283 98.8164 59.458C98.3997 59.8844 97.8284 60.0977 97.1025 60.0977C96.4515 60.0977 95.9111 59.9137 95.4814 59.5459C95.055 59.1748 94.8239 58.6865 94.7881 58.0811H95.9355C95.9811 58.4261 96.1048 58.6914 96.3066 58.877C96.5085 59.0592 96.7721 59.1504 97.0977 59.1504C97.4622 59.1504 97.7454 59.0202 97.9473 58.7598C98.1523 58.4993 98.2549 58.1445 98.2549 57.6953C98.2549 57.2624 98.1426 56.9206 97.918 56.6699C97.6934 56.416 97.3841 56.2891 96.9902 56.2891C96.7754 56.2891 96.5931 56.3184 96.4434 56.377C96.2936 56.4323 96.1309 56.543 95.9551 56.709L95.0078 56.4746Z" fill="white"/>
        <path d="M99.168 84.7656C99.168 85.1139 99.0784 85.4248 98.8994 85.6982C98.7204 85.9684 98.4762 86.1816 98.167 86.3379C98.5381 86.5104 98.8229 86.7464 99.0215 87.0459C99.2233 87.3454 99.3242 87.6839 99.3242 88.0615C99.3242 88.6865 99.1126 89.1829 98.6895 89.5508C98.2663 89.9154 97.7031 90.0977 97 90.0977C96.2936 90.0977 95.7272 89.9137 95.3008 89.5459C94.8776 89.1781 94.666 88.6833 94.666 88.0615C94.666 87.6807 94.7669 87.3389 94.9688 87.0361C95.1706 86.7334 95.4538 86.5007 95.8184 86.3379C95.5124 86.1816 95.2699 85.9684 95.0908 85.6982C94.915 85.4248 94.8271 85.1139 94.8271 84.7656C94.8271 84.1602 95.0225 83.68 95.4131 83.3252C95.8037 82.9704 96.3311 82.793 96.9951 82.793C97.6624 82.793 98.1914 82.9704 98.582 83.3252C98.9727 83.68 99.168 84.1602 99.168 84.7656ZM98.1377 88.0029C98.1377 87.6514 98.0319 87.3682 97.8203 87.1533C97.612 86.9352 97.3353 86.8262 96.9902 86.8262C96.6452 86.8262 96.3685 86.9336 96.1602 87.1484C95.9551 87.3633 95.8525 87.6481 95.8525 88.0029C95.8525 88.3512 95.9535 88.6296 96.1553 88.8379C96.3604 89.0462 96.6419 89.1504 97 89.1504C97.3581 89.1504 97.6364 89.0495 97.835 88.8477C98.0368 88.6458 98.1377 88.3643 98.1377 88.0029ZM97.9863 84.8096C97.9863 84.5003 97.8968 84.2464 97.7178 84.0479C97.5387 83.846 97.2979 83.7451 96.9951 83.7451C96.6924 83.7451 96.4531 83.8411 96.2773 84.0332C96.1016 84.222 96.0137 84.4808 96.0137 84.8096C96.0137 85.1351 96.1016 85.3939 96.2773 85.5859C96.4564 85.778 96.6973 85.874 97 85.874C97.3027 85.874 97.542 85.778 97.7178 85.5859C97.8968 85.3939 97.9863 85.1351 97.9863 84.8096Z" fill="white"/>
        <path d="M99.3242 117.007C99.3242 118.029 99.1322 118.8 98.748 119.321C98.3672 119.839 97.7861 120.098 97.0049 120.098C96.2367 120.098 95.6572 119.845 95.2666 119.341C94.8792 118.833 94.6807 118.083 94.6709 117.09V115.859C94.6709 114.837 94.8613 114.071 95.2422 113.56C95.6263 113.049 96.2106 112.793 96.9951 112.793C97.7731 112.793 98.3525 113.042 98.7334 113.54C99.1175 114.038 99.3145 114.784 99.3242 115.776V117.007ZM98.1377 115.679C98.1377 115.011 98.0466 114.523 97.8643 114.214C97.682 113.901 97.3923 113.745 96.9951 113.745C96.6077 113.745 96.3229 113.893 96.1406 114.189C95.9583 114.482 95.8623 114.941 95.8525 115.566V117.178C95.8525 117.842 95.9453 118.337 96.1309 118.662C96.3164 118.988 96.6077 119.15 97.0049 119.15C97.3857 119.15 97.6673 119.001 97.8496 118.701C98.0319 118.398 98.1279 117.926 98.1377 117.285V115.679Z" fill="white"/>
        <path d="M129.382 52.8564V53.8379H129.235C128.571 53.8477 128.041 54.0299 127.644 54.3848C127.246 54.7396 127.01 55.2425 126.936 55.8936C127.316 55.4932 127.803 55.293 128.396 55.293C129.024 55.293 129.519 55.5143 129.88 55.957C130.244 56.3997 130.427 56.971 130.427 57.6709C130.427 58.3936 130.214 58.9795 129.787 59.4287C129.364 59.8747 128.807 60.0977 128.117 60.0977C127.408 60.0977 126.831 59.8356 126.389 59.3115C125.949 58.7874 125.729 58.1006 125.729 57.251V56.8457C125.729 55.599 126.032 54.6224 126.638 53.916C127.246 53.2096 128.12 52.8564 129.26 52.8564H129.382ZM128.107 56.25C127.847 56.25 127.608 56.3232 127.39 56.4697C127.175 56.6162 127.017 56.8115 126.916 57.0557V57.417C126.916 57.9443 127.027 58.3643 127.248 58.6768C127.469 58.986 127.756 59.1406 128.107 59.1406C128.459 59.1406 128.737 59.0088 128.942 58.7451C129.147 58.4814 129.25 58.1348 129.25 57.7051C129.25 57.2754 129.146 56.9255 128.938 56.6553C128.729 56.3851 128.452 56.25 128.107 56.25Z" fill="white"/>
        <path d="M129.055 87.0264C128.658 87.4463 128.194 87.6562 127.663 87.6562C127.038 87.6562 126.54 87.4381 126.169 87.002C125.798 86.5625 125.612 85.9863 125.612 85.2734C125.612 84.8047 125.707 84.3799 125.896 83.999C126.084 83.6182 126.353 83.3219 126.701 83.1104C127.049 82.8988 127.453 82.793 127.912 82.793C128.628 82.793 129.196 83.0599 129.616 83.5938C130.036 84.1276 130.246 84.8421 130.246 85.7373V86.0693C130.246 87.3519 129.956 88.3301 129.377 89.0039C128.798 89.6777 127.933 90.0195 126.784 90.0293H126.643V89.0479H126.813C127.513 89.0381 128.05 88.8704 128.425 88.5449C128.799 88.2161 129.009 87.71 129.055 87.0264ZM127.912 86.7285C128.15 86.7285 128.373 86.6602 128.581 86.5234C128.789 86.3867 128.951 86.1979 129.064 85.957V85.4932C129.064 84.9691 128.957 84.5475 128.742 84.2285C128.527 83.9095 128.249 83.75 127.907 83.75C127.565 83.75 127.292 83.8916 127.087 84.1748C126.885 84.4548 126.784 84.8096 126.784 85.2393C126.784 85.6852 126.887 86.0449 127.092 86.3184C127.297 86.5918 127.57 86.7285 127.912 86.7285Z" fill="white"/>
        <g filter="url(#filter1_d_54_11315)">
            <rect x="128" y="35" width="80" height="44" rx="8" fill="#40A9FF"/>
        </g>
        <path fill-rule="evenodd" clip-rule="evenodd" d="M151.499 45.7264C152.327 45.7264 152.998 46.3975 152.998 47.2255V66.1301C152.998 66.958 152.327 67.6292 151.499 67.6292C150.671 67.6292 150 66.958 150 66.1301V47.2255C150 46.3975 150.671 45.7264 151.499 45.7264Z" fill="white"/>
        <path fill-rule="evenodd" clip-rule="evenodd" d="M159.802 50.4522C160.63 50.4522 161.301 51.1234 161.301 51.9513V61.4036C161.301 62.2316 160.63 62.9027 159.802 62.9027C158.974 62.9027 158.303 62.2316 158.303 61.4036V51.9513C158.303 51.1234 158.974 50.4522 159.802 50.4522Z" fill="white"/>
        <path fill-rule="evenodd" clip-rule="evenodd" d="M168.104 45.7264C168.932 45.7264 169.603 46.3975 169.603 47.2255V66.1301C169.603 66.958 168.932 67.6292 168.104 67.6292C167.276 67.6292 166.605 66.958 166.605 66.1301V47.2255C166.605 46.3975 167.276 45.7264 168.104 45.7264Z" fill="white"/>
        <path fill-rule="evenodd" clip-rule="evenodd" d="M176.405 41C177.233 41 177.904 41.6712 177.904 42.4991V70.8561C177.904 71.684 177.233 72.3552 176.405 72.3552C175.577 72.3552 174.906 71.684 174.906 70.8561V42.4991C174.906 41.6712 175.577 41 176.405 41Z" fill="white"/>
        <path fill-rule="evenodd" clip-rule="evenodd" d="M184.707 48.8778C185.535 48.8778 186.206 49.5489 186.206 50.3769V62.98C186.206 63.8079 185.535 64.4791 184.707 64.4791C183.879 64.4791 183.208 63.8079 183.208 62.98V50.3769C183.208 49.5489 183.879 48.8778 184.707 48.8778Z" fill="white"/>
        <defs>
            <filter id="filter0_dd_54_11315" x="0" y="79" width="87" height="87" filterUnits="userSpaceOnUse" color-interpolation-filters="sRGB">
                <feFlood flood-opacity="0" result="BackgroundImageFix"/>
                <feColorMatrix in="SourceAlpha" type="matrix" values="0 0 0 0 0 0 0 0 0 0 0 0 0 0 0 0 0 0 127 0" result="hardAlpha"/>
                <feOffset dy="8"/>
                <feGaussianBlur stdDeviation="8"/>
                <feColorMatrix type="matrix" values="0 0 0 0 0.121569 0 0 0 0 0.109804 0 0 0 0 0.156863 0 0 0 0.08 0"/>
                <feBlend mode="normal" in2="BackgroundImageFix" result="effect1_dropShadow_54_11315"/>
                <feColorMatrix in="SourceAlpha" type="matrix" values="0 0 0 0 0 0 0 0 0 0 0 0 0 0 0 0 0 0 127 0" result="hardAlpha"/>
                <feOffset/>
                <feGaussianBlur stdDeviation="4"/>
                <feColorMatrix type="matrix" values="0 0 0 0 0.121569 0 0 0 0 0.109804 0 0 0 0 0.156863 0 0 0 0.04 0"/>
                <feBlend mode="normal" in2="effect1_dropShadow_54_11315" result="effect2_dropShadow_54_11315"/>
                <feBlend mode="normal" in="SourceGraphic" in2="effect2_dropShadow_54_11315" result="shape"/>
            </filter>
            <filter id="filter1_d_54_11315" x="120" y="31" width="96" height="60" filterUnits="userSpaceOnUse" color-interpolation-filters="sRGB">
                <feFlood flood-opacity="0" result="BackgroundImageFix"/>
                <feColorMatrix in="SourceAlpha" type="matrix" values="0 0 0 0 0 0 0 0 0 0 0 0 0 0 0 0 0 0 127 0" result="hardAlpha"/>
                <feOffset dy="4"/>
                <feGaussianBlur stdDeviation="4"/>
                <feColorMatrix type="matrix" values="0 0 0 0 0.121569 0 0 0 0 0.109804 0 0 0 0 0.156863 0 0 0 0.08 0"/>
                <feBlend mode="normal" in2="BackgroundImageFix" result="effect1_dropShadow_54_11315"/>
                <feBlend mode="normal" in="SourceGraphic" in2="effect1_dropShadow_54_11315" result="shape"/>
            </filter>
        </defs>
    </symbol>
    <symbol id="ic20-full-screen-off" width="20" height="20" viewBox="0 0 20 20" fill="none" xmlns="http://www.w3.org/2000/svg">
        <path fill-rule="evenodd" clip-rule="evenodd" d="M11 8.49997C11 8.77611 11.2239 8.99997 11.5 8.99997L16 8.99997C16.5523 8.99997 17 8.55226 17 7.99997C17 7.44769 16.5523 6.99998 16 6.99998H14.4142L17.7071 3.7071C18.0976 3.31658 18.0976 2.68342 17.7071 2.29289C17.3166 1.90237 16.6834 1.90237 16.2929 2.29289L13 5.58579V3.99999C13 3.44771 12.5523 2.99999 12 2.99999C11.4477 2.99999 11 3.44771 11 3.99999V8.49997ZM9 11.5C9 11.2239 8.77614 11 8.5 11H4.00001C3.44773 11 3.00001 11.4477 3.00001 12C3.00001 12.5523 3.44773 13 4.00001 13H5.58577L2.29289 16.2929C1.90237 16.6834 1.90237 17.3166 2.29289 17.7071C2.68342 18.0976 3.31658 18.0976 3.7071 17.7071L7 14.4142V16C7 16.5523 7.44772 17 8 17C8.55229 17 9 16.5523 9 16V11.5Z" fill="currentColor"/>
    </symbol>
    <svg id="ic20-full-screen-on" width="20" height="20" viewBox="0 0 20 20" fill="none" xmlns="http://www.w3.org/2000/svg">
        <path fill-rule="evenodd" clip-rule="evenodd" d="M18 2.5C18 2.22386 17.7761 2 17.5 2H13C12.4477 2 12 2.44771 12 3C12 3.55228 12.4477 3.99999 13 4H14.5858L11.2929 7.29287C10.9024 7.68339 10.9024 8.31655 11.2929 8.70708C11.6834 9.0976 12.3166 9.0976 12.7071 8.70708L16 5.41418V6.99998C16 7.55226 16.4477 7.99998 17 7.99998C17.5523 7.99998 18 7.55226 18 6.99998V2.5ZM2 17.5C2 17.7761 2.22386 18 2.5 18L6.99999 18C7.55227 18 7.99999 17.5523 7.99999 17C7.99999 16.4477 7.55227 16 6.99999 16H5.41424L8.70711 12.7071C9.09763 12.3166 9.09763 11.6834 8.70711 11.2929C8.31658 10.9024 7.68342 10.9024 7.2929 11.2929L4 14.5858L4 13C4 12.4477 3.55228 12 3 12C2.44771 12 2 12.4477 2 13V17.5Z" fill="currentColor"/>
    </svg>

    <symbol id="ic8-status-dot-default" width="8" height="8" viewBox="0 0 8 8" fill="none" xmlns="http://www.w3.org/2000/svg">
        <path d="M0 4C0 1.79086 1.79086 0 4 0C6.20914 0 8 1.79086 8 4C8 6.20914 6.20914 8 4 8C1.79086 8 0 6.20914 0 4Z" fill="#C7C8D9"/>
    </symbol>
    <symbol id="ic8-status-dot-warning" width="8" height="8" viewBox="0 0 8 8" fill="none" xmlns="http://www.w3.org/2000/svg">
        <path d="M0 4C0 1.79086 1.79086 0 4 0C6.20914 0 8 1.79086 8 4C8 6.20914 6.20914 8 4 8C1.79086 8 0 6.20914 0 4Z" fill="#FF991F"/>
    </symbol>
    <symbol id="ic8-status-dot-processing" width="8" height="8" viewBox="0 0 8 8" fill="none" xmlns="http://www.w3.org/2000/svg">
        <path d="M0 4C0 1.79086 1.79086 0 4 0C6.20914 0 8 1.79086 8 4C8 6.20914 6.20914 8 4 8C1.79086 8 0 6.20914 0 4Z" fill="#1890FF"/>
    </symbol>
    <symbol id="ic8-status-dot-error" width="8" height="8" viewBox="0 0 8 8" fill="none" xmlns="http://www.w3.org/2000/svg">
        <path d="M0 4C0 1.79086 1.79086 0 4 0C6.20914 0 8 1.79086 8 4C8 6.20914 6.20914 8 4 8C1.79086 8 0 6.20914 0 4Z" fill="#F5222D"/>
    </symbol>
    <symbol id="ic8-status-dot-success" width="8" height="8" viewBox="0 0 8 8" fill="none" xmlns="http://www.w3.org/2000/svg">
        <path d="M0 4C0 1.79086 1.79086 0 4 0C6.20914 0 8 1.79086 8 4C8 6.20914 6.20914 8 4 8C1.79086 8 0 6.20914 0 4Z" fill="#2FBC4F"/>
    </symbol>
    <symbol width="16" height="16" id="ic16-using-of-cam" viewBox="0 0 16 16" fill="none" xmlns="http://www.w3.org/2000/svg">
        <path fill-rule="evenodd" clip-rule="evenodd" d="M13.1429 8C13.1429 10.8403 10.8403 13.1429 8 13.1429C5.15968 13.1429 2.85714 10.8403 2.85714 8C2.85714 5.15968 5.15968 2.85714 8 2.85714C10.8403 2.85714 13.1429 5.15968 13.1429 8ZM14 8C14 11.3137 11.3137 14 8 14C4.68629 14 2 11.3137 2 8C2 4.68629 4.68629 2 8 2C11.3137 2 14 4.68629 14 8ZM8 12C10.2091 12 12 10.2091 12 8C12 5.79086 10.2091 4 8 4C5.79086 4 4 5.79086 4 8C4 10.2091 5.79086 12 8 12Z" fill="#F5222D"/>
    </symbol>
    <symbol width="24" height="24" id="ic24-videocamera" viewBox="0 0 24 24" fill="none" xmlns="http://www.w3.org/2000/svg">
        <rect x="3" y="6" width="14" height="12" rx="3" stroke="currentColor" stroke-width="2"/>
        <path d="M21 16.63V7.36998C21 6.90362 20.4179 6.69119 20.1175 7.04792L17 10.75V13.25L20.1175 16.9521C20.4179 17.3088 21 17.0964 21 16.63Z" stroke="currentColor" stroke-width="2"/>
    </symbol>
    <symbol width="24" height="24" id="ic24-videocamera-off" viewBox="0 0 24 24" fill="none" xmlns="http://www.w3.org/2000/svg">
        <rect x="3" y="6" width="14" height="12" rx="3" stroke="currentColor" stroke-width="2"/>
        <path d="M21 16.63V7.36998C21 6.90362 20.4179 6.69119 20.1175 7.04792L17 10.75V13.25L20.1175 16.9521C20.4179 17.3088 21 17.0964 21 16.63Z" stroke="currentColor" stroke-width="2"/>
        <path d="M4.58578 3L21 19.4142" stroke="currentColor" stroke-width="2" stroke-linecap="round"/>
    </symbol>
    <symbol width="21" height="20" id="ic24-videocamera-mute" viewBox="0 0 21 20" fill="none" xmlns="http://www.w3.org/2000/svg">
        <path fill-rule="evenodd" clip-rule="evenodd" d="M5.13611 2.29289C4.74558 1.90237 4.11242 1.90237 3.72189 2.29289C3.33137 2.68342 3.33137 3.31658 3.72189 3.70711L3.94066 3.92587C3.06028 4.65961 2.5 5.7644 2.5 7.00005V13C2.5 15.2092 4.29086 17 6.5 17H10.5C12.2626 17 13.7589 15.86 14.2918 14.2771L16.7929 16.7781C17.1834 17.1686 17.8166 17.1686 18.2071 16.7781C18.5976 16.3876 18.5976 15.7544 18.2071 15.3639L5.13611 2.29289ZM12.5 12.4852L5.36669 5.35191C4.84317 5.71258 4.5 6.31624 4.5 7.00005V13C4.5 14.1046 5.39543 15 6.5 15H10.5C11.6046 15 12.5 14.1046 12.5 13V12.4852ZM18.5 6.19827V12.8284L16.5 10.8284V7.3965L14.775 9.10349L8.6716 3.00005H10.5C12.5684 3.00005 14.2701 4.56994 14.4785 6.58317L15.9449 5.13207C16.8921 4.19474 18.5 4.8657 18.5 6.19827Z" fill="currentColor"/>
    </symbol>
    <symbol width="20" height="20" id="ic20-maximize-screen-off" viewBox="0 0 20 20" fill="none" xmlns="http://www.w3.org/2000/svg">
        <path fill-rule="evenodd" clip-rule="evenodd" d="M15.4444 17H4.55556C3.69611 17 3 16.3039 3 15.4444V4.55556C3 3.69611 3.69611 3 4.55556 3H15.4444C16.3039 3 17 3.69611 17 4.55556V15.4444C17 16.3039 16.3039 17 15.4444 17Z" stroke="currentColor" stroke-width="2" stroke-linecap="round" stroke-linejoin="round"/>
        <path d="M11 6H14V9" stroke="currentColor" stroke-width="2" stroke-linecap="round" stroke-linejoin="round"/>
        <path d="M9 14H6V11" stroke="currentColor" stroke-width="2" stroke-linecap="round" stroke-linejoin="round"/>
    </symbol>
    <symbol width="20" height="20" id="ic20-maximize-screen-on" viewBox="0 0 20 20" fill="none" xmlns="http://www.w3.org/2000/svg">
        <path fill-rule="evenodd" clip-rule="evenodd" d="M15.4444 17H4.55556C3.69611 17 3 16.3039 3 15.4444V4.55556C3 3.69611 3.69611 3 4.55556 3H15.4444C16.3039 3 17 3.69611 17 4.55556V15.4444C17 16.3039 16.3039 17 15.4444 17Z" stroke="currentColor" stroke-width="2" stroke-linecap="round" stroke-linejoin="round"/>
        <path d="M14 9L11 9L11 6" stroke="currentColor" stroke-width="2" stroke-linecap="round" stroke-linejoin="round"/>
        <path d="M6 11L9 11L9 14" stroke="currentColor" stroke-width="2" stroke-linecap="round" stroke-linejoin="round"/>
    </symbol>

    <symbol width="20" height="20" id="ic20-minimize-screen-off" viewBox="0 0 20 20" fill="none" xmlns="http://www.w3.org/2000/svg">
        <path fill-rule="evenodd" clip-rule="evenodd" d="M4 15V7H16V15C16 15.5523 15.5523 16 15 16H5C4.44772 16 4 15.5523 4 15ZM5 2C3.34315 2 2 3.34315 2 5V15C2 16.6569 3.34315 18 5 18H15C16.6569 18 18 16.6569 18 15V5C18 3.34315 16.6569 2 15 2H5ZM8.08062 9H11.9194C12.7579 9 13.2241 9.96993 12.7002 10.6247L10.7809 13.0239C10.3805 13.5243 9.61946 13.5243 9.21913 13.0239L7.29976 10.6247C6.77595 9.96993 7.24212 9 8.08062 9Z" fill="currentColor"/>
    </symbol>
    <symbol width="20" height="20" id="ic20-minimize-screen-on" viewBox="0 0 20 20" fill="none" xmlns="http://www.w3.org/2000/svg">
        <path fill-rule="evenodd" clip-rule="evenodd" d="M15 4H5C4.44772 4 4 4.44772 4 5V13H16V5C16 4.44772 15.5523 4 15 4ZM5 2C3.34315 2 2 3.34315 2 5V15C2 16.6569 3.34315 18 5 18H15C16.6569 18 18 16.6569 18 15V5C18 3.34315 16.6569 2 15 2H5ZM8.08062 11H11.9194C12.7579 11 13.2241 10.0301 12.7002 9.37531L10.7809 6.97609C10.3805 6.47568 9.61946 6.47568 9.21913 6.97609L7.29976 9.3753C6.77595 10.0301 7.24212 11 8.08062 11Z" fill="currentColor"/>
    </symbol>
    <symbol width="24" height="24" id="ic24-sharing" viewBox="0 0 24 24" fill="none" xmlns="http://www.w3.org/2000/svg">
        <path fill-rule="evenodd" clip-rule="evenodd" d="M22 7C22 5.34315 20.6569 4 19 4H5C3.34315 4 2 5.34315 2 7V17C2 18.6569 3.34315 20 5 20H19C20.6569 20 22 18.6569 22 17V7ZM5 6H19C19.5523 6 20 6.44772 20 7V17C20 17.5523 19.5523 18 19 18H5C4.44772 18 4 17.5523 4 17V7C4 6.44772 4.44772 6 5 6ZM11.91 8.004L11.8515 8.01102L11.734 8.03584L11.6287 8.07123L11.5159 8.12467L11.4047 8.19633C11.3657 8.22531 11.3283 8.2575 11.2929 8.29289L9.29289 10.2929C8.90237 10.6834 8.90237 11.3166 9.29289 11.7071C9.68342 12.0976 10.3166 12.0976 10.7071 11.7071L11 11.414V15C11 15.5523 11.4477 16 12 16C12.5523 16 13 15.5523 13 15V11.414L13.2929 11.7071C13.6834 12.0976 14.3166 12.0976 14.7071 11.7071C15.0976 11.3166 15.0976 10.6834 14.7071 10.2929L12.7071 8.29289L12.6254 8.21969L12.5207 8.146L12.4232 8.09367L12.3121 8.04974L12.2007 8.02024L12.0752 8.00279L12 8L11.91 8.004Z" fill="currentColor"/>
    </symbol>
    <symbol width="24" height="24"  id="ic24-sharing-stop" viewBox="0 0 24 24" fill="none" xmlns="http://www.w3.org/2000/svg">
        <path fill-rule="evenodd" clip-rule="evenodd" d="M5.31582 2.31659C4.93838 1.91341 4.30556 1.89253 3.90238 2.26997C3.49919 2.6474 3.47831 3.28022 3.85575 3.68341L4.24243 4.09648C2.95235 4.43213 2 5.60485 2 7V17C2 18.6569 3.34315 20 5 20H19C19.0428 20 19.0854 19.9991 19.1277 19.9973L19.7699 20.6834C20.1474 21.0866 20.7802 21.1075 21.1834 20.73C21.5866 20.3526 21.6075 19.7198 21.23 19.3166L5.31582 2.31659ZM17.2579 18L13 13.4516V15C13 15.5523 12.5523 16 12 16C11.4477 16 11 15.5523 11 15V11.414L10.7071 11.7071C10.3166 12.0976 9.68342 12.0976 9.29289 11.7071C8.90237 11.3166 8.90237 10.6834 9.29289 10.2929L9.68036 9.90543L6.02438 6H5C4.44772 6 4 6.44772 4 7V17C4 17.5523 4.44772 18 5 18H17.2579Z" fill="currentColor"/>
        <path d="M20 7V15.3399L21.962 17.4791C21.987 17.3231 22 17.1631 22 17V7C22 5.34315 20.6569 4 19 4H9.59952L11.4338 6H19C19.5523 6 20 6.44772 20 7Z" fill="currentColor"/>
    </symbol>


    <svg width="24" height="24" id="ic24-phone-new" viewBox="0 0 24 24" fill="none" xmlns="http://www.w3.org/2000/svg">
        <path fill-rule="evenodd" clip-rule="evenodd" d="M9.5547 9.83205C9.8329 9.64658 10 9.33435 10 9V5C10 3.34315 8.65685 2 7 2H3C2.44772 2 2 2.44772 2 3C2 12.9411 11.0589 22 21 22C21.5523 22 22 21.5523 22 21V17C22 15.3431 20.6569 14 19 14H15C14.6656 14 14.3534 14.1671 14.1679 14.4453L12.2626 17.3033C10.1874 15.9615 8.36925 14.1892 6.97074 12.149L6.69668 11.7374L9.5547 9.83205ZM15.5352 16H19C19.5523 16 20 16.4477 20 17V19.9653C18.0628 19.8313 16.1721 19.3132 14.4087 18.4916L14.0041 18.2966L15.5352 16ZM7 4C7.55228 4 8 4.44772 8 5V8.46482L5.70338 9.9959C4.76882 8.11845 4.17903 6.08626 4.03467 4H7ZM17 2C17.5523 2 18 2.44772 18 3V6H21C21.5523 6 22 6.44772 22 7C22 7.55228 21.5523 8 21 8H18V11C18 11.5523 17.5523 12 17 12C16.4477 12 16 11.5523 16 11V8H13C12.4477 8 12 7.55228 12 7C12 6.44772 12.4477 6 13 6H16V3C16 2.44772 16.4477 2 17 2Z" fill="currentColor"/>
    </svg>
</svg>